<?xml version="1.0" encoding="UTF-8"?>
<svg width="65px" height="49px" viewBox="0 0 65 49" version="1.1" xmlns="http://www.w3.org/2000/svg" xmlns:xlink="http://www.w3.org/1999/xlink">
    <title>Path Copy</title>
    <g id="Web" stroke="none" stroke-width="1" fill="none" fill-rule="evenodd">
        <g id="Desktop" transform="translate(-14.000000, -31.000000)" fill="#303030" fill-rule="nonzero">
            <path d="M70.8846985,32.2039483 C78.2476373,35.6044773 76.8880832,43.067002 73.8193988,47.2092171 C70.7948479,50.8185034 69.2825724,53.9174311 69.2825724,56.5060001 C69.2825724,60.3888535 82.2017259,65.2206274 78.2476373,73.5685331 C73.8047186,82.948461 58.6854671,80.1300628 58.6854671,72.2788487 C58.6854671,64.4276346 63.4682149,55.3847636 63.4682149,47.2092171 C59.8049106,48.6891431 55.2613759,54.1003744 55.2613759,68.8805321 C55.2613759,72.7982485 52.105088,75.4911975 46.4971072,75.4911975 C40.8891264,75.4911975 37.4358293,72.7982485 37.4358293,68.8805321 C37.4358293,54.1003744 32.7325926,48.8779253 29.5259995,47.2092171 C29.5259995,55.3847636 34.3087473,62.121498 34.3087473,72.2788487 C34.3087473,80.4547845 19.3655223,82.9010896 14.7465772,73.5685331 C10.8118265,65.6183884 23.711642,60.6012211 23.711642,56.5060001 C23.711642,52.4107791 22.2435001,51.3514321 19.1748156,47.2092171 C16.1061312,43.067002 14.7465772,35.6044773 22.109516,32.2039483 C26.5970923,30.1313882 32.6188433,32.2039483 34.3087473,37.1171206 C36.1248251,42.3971267 44.5326502,58.7312851 46.4974201,58.7312851 C48.46219,58.7312851 56.9889501,41.7725323 58.6854671,37.1171206 C61.2311956,30.1313882 66.3971222,30.1313882 70.8846985,32.2039483 Z" id="Path-Copy"></path>
        </g>
    </g>
</svg>