<svg xmlns="http://www.w3.org/2000/svg" viewBox="0 0 194.98 99.48"><defs><style>.cls-1{fill:#b2b536;}.cls-2,.cls-3{font-size:54px;font-family:Syne-Regular, Syne;}.cls-2{letter-spacing:0.13em;}.cls-3{letter-spacing:0.13em;}</style></defs><g id="Layer_2" data-name="Layer 2"><g id="Layer_1-2" data-name="Layer 1"><rect class="cls-1" y="70.28" width="191.55" height="29.2"/><path d="M34.47,33.32a12.55,12.55,0,0,1-2.26,6.1,12.2,12.2,0,0,1-4.67,3.89,14.21,14.21,0,0,1-12.93-.43,13.63,13.63,0,0,1-5.19-5.12,15.4,15.4,0,0,1-2-7.93,15.4,15.4,0,0,1,2-7.93,14.09,14.09,0,0,1,5.19-5.18,13.6,13.6,0,0,1,6.87-1.83,13.42,13.42,0,0,1,6,1.37,12.53,12.53,0,0,1,7,9.91H30.29A9.78,9.78,0,0,0,26.91,21a8.63,8.63,0,0,0-5.43-1.86,9.09,9.09,0,0,0-4.64,1.26,9.21,9.21,0,0,0-3.49,3.64A11.67,11.67,0,0,0,12,29.83a11.6,11.6,0,0,0,1.32,5.7,9.1,9.1,0,0,0,3.46,3.6,9.24,9.24,0,0,0,4.67,1.23,8.53,8.53,0,0,0,5.69-1.86,10.37,10.37,0,0,0,3.18-5.18Z"/><path d="M41,44.09V4h4.58V44.09Zm19.69,0v-18A8.78,8.78,0,0,0,60,22.42,4.76,4.76,0,0,0,58,20.21a7.27,7.27,0,0,0-3.44-.74,8.29,8.29,0,0,0-4.35,1.2A9.68,9.68,0,0,0,46.87,24a11.31,11.31,0,0,0-1.58,4.84l-.06-3.32a14.78,14.78,0,0,1,1.18-4.35,11.74,11.74,0,0,1,2.23-3.35,9.25,9.25,0,0,1,6.79-2.89,11.64,11.64,0,0,1,4.12.68,8.2,8.2,0,0,1,3.09,2,9.1,9.1,0,0,1,2,3.17A12.35,12.35,0,0,1,65.27,25V44.09Z"/><path d="M93,34.87h4.3a11.81,11.81,0,0,1-2,5,11.17,11.17,0,0,1-4.13,3.49,12.8,12.8,0,0,1-5.86,1.29A13.74,13.74,0,0,1,73,37.47a15.46,15.46,0,0,1-1.86-7.64,15.94,15.94,0,0,1,1.81-7.67,13.75,13.75,0,0,1,5-5.33A13.3,13.3,0,0,1,85,14.89,12.82,12.82,0,0,1,92,16.75a11,11,0,0,1,4.29,5.44A20.85,20.85,0,0,1,97.45,31H75.69a11.83,11.83,0,0,0,1.55,4.93,9,9,0,0,0,3.32,3.29,9.34,9.34,0,0,0,4.7,1.17,8.07,8.07,0,0,0,4.95-1.51A7.55,7.55,0,0,0,93,34.87ZM85.14,19.18a8.83,8.83,0,0,0-6,2.06A10,10,0,0,0,76,26.85H92.76a7.92,7.92,0,0,0-2.44-5.72A7.56,7.56,0,0,0,85.14,19.18Z"/><path d="M103.35,15.46h4.58V44.09h-4.58Zm14.42-.57a11.69,11.69,0,0,1,4.13.68,8.2,8.2,0,0,1,3.09,2,8.94,8.94,0,0,1,1.94,3.17,12.11,12.11,0,0,1,.69,4.21V44.09H123v-18a7.06,7.06,0,0,0-1.54-5,6,6,0,0,0-4.64-1.66,8.29,8.29,0,0,0-4.35,1.2,9.71,9.71,0,0,0-3.3,3.29,11.43,11.43,0,0,0-1.57,4.84l-.06-3.32a14.2,14.2,0,0,1,1.18-4.35A11.74,11.74,0,0,1,111,17.78a9.25,9.25,0,0,1,6.78-2.89Z"/><path d="M8.83,57.73h4.32v27H8.83Zm13.61-.54a11.1,11.1,0,0,1,3.89.65,7.65,7.65,0,0,1,2.91,1.89,8.61,8.61,0,0,1,1.84,3,11.44,11.44,0,0,1,.65,4v18H27.41v-17A6.68,6.68,0,0,0,26,63.08a5.67,5.67,0,0,0-4.37-1.57,7.81,7.81,0,0,0-4.11,1.14,9.1,9.1,0,0,0-3.1,3.1,10.74,10.74,0,0,0-1.49,4.56l-.05-3.13a14,14,0,0,1,1.1-4.1A11.12,11.12,0,0,1,16,59.92a8.75,8.75,0,0,1,6.4-2.73Zm18.14,0a11.06,11.06,0,0,1,3.89.65,7.69,7.69,0,0,1,2.92,1.89,8.58,8.58,0,0,1,1.83,3,11.21,11.21,0,0,1,.65,4v18H45.55v-17a6.64,6.64,0,0,0-1.46-4.7,5.67,5.67,0,0,0-4.37-1.57,7.75,7.75,0,0,0-4.1,1.14,9,9,0,0,0-3.11,3.1A10.59,10.59,0,0,0,31,70.31L31,67.18a13.66,13.66,0,0,1,1.11-4.1,11.31,11.31,0,0,1,2.1-3.16,8.75,8.75,0,0,1,6.4-2.73Z"/><path d="M76.46,76h4.05a11.07,11.07,0,0,1-1.91,4.72,10.52,10.52,0,0,1-3.89,3.3,12.11,12.11,0,0,1-5.54,1.21A13,13,0,0,1,57.59,78.5a14.61,14.61,0,0,1-1.76-7.21,15.09,15.09,0,0,1,1.71-7.24,12.92,12.92,0,0,1,4.67-5,12.41,12.41,0,0,1,6.69-1.84A12.07,12.07,0,0,1,75.57,59a10.38,10.38,0,0,1,4.05,5.13,19.81,19.81,0,0,1,1,8.29H60.15A11.21,11.21,0,0,0,61.61,77a8.56,8.56,0,0,0,3.13,3.11,8.9,8.9,0,0,0,4.43,1.1,7.52,7.52,0,0,0,4.67-1.43A7.11,7.11,0,0,0,76.46,76Zm-7.4-14.8a8.3,8.3,0,0,0-5.61,1.95,9.52,9.52,0,0,0-3,5.29H76.25a7.46,7.46,0,0,0-2.3-5.4A7.1,7.1,0,0,0,69.06,61.24Z"/><path d="M97.37,80.47a11.3,11.3,0,0,1-5.43-1.38,10.84,10.84,0,0,1-4.16-4,11.66,11.66,0,0,1-1.59-6.21,12,12,0,0,1,1.56-6.24,11.23,11.23,0,0,1,4.11-4.05,11.25,11.25,0,0,1,7.26-1.29,8.81,8.81,0,0,1,1.59.4h11v4.65a13,13,0,0,1-4.62-.87,27.68,27.68,0,0,1-3.92-1.78l-.21-.22a11.16,11.16,0,0,1,3.1,2.43,9.93,9.93,0,0,1,1.84,3.16,11.45,11.45,0,0,1,.62,3.81A11.92,11.92,0,0,1,107,75.12a10.44,10.44,0,0,1-4.08,4A11.31,11.31,0,0,1,97.37,80.47Zm7.93,15.06V94.34a5.23,5.23,0,0,0-1.48-4.15,6.6,6.6,0,0,0-4.46-1.3H94a14.16,14.16,0,0,1-3.1-.3,6.28,6.28,0,0,1-2.19-.89,3.75,3.75,0,0,1-1.29-1.46,4.23,4.23,0,0,1-.44-1.94,3.83,3.83,0,0,1,1.25-3.1,5.9,5.9,0,0,1,3.07-1.33,11.47,11.47,0,0,1,3.51,0l2.6.6a22.3,22.3,0,0,0-4.51.59,1.83,1.83,0,0,0-1.6,1.84,1.64,1.64,0,0,0,.62,1.32,2.92,2.92,0,0,0,1.87.51h5.61a15.69,15.69,0,0,1,5.13.79,7.58,7.58,0,0,1,3.73,2.64,8.26,8.26,0,0,1,1.4,5.1v2.27ZM97.37,76.42A6.62,6.62,0,0,0,103.2,73a8,8,0,0,0,1-4.1,8.49,8.49,0,0,0-.94-4.13A6.7,6.7,0,0,0,94,62.19a6.79,6.79,0,0,0-2.54,2.56,8.18,8.18,0,0,0-1,4.16,8,8,0,0,0,1,4.1A6.53,6.53,0,0,0,94,75.55,6.78,6.78,0,0,0,97.37,76.42Z"/><path d="M127.76,85.27a10.21,10.21,0,0,1-5.86-1.81,12.79,12.79,0,0,1-4.26-5,17,17,0,0,1,0-14.45,12.89,12.89,0,0,1,4.4-5,11.06,11.06,0,0,1,6.24-1.84,7.91,7.91,0,0,1,5.75,1.92,10,10,0,0,1,2.7,5.1,31.57,31.57,0,0,1,.73,7.08,25.09,25.09,0,0,1-.43,4.45,17.62,17.62,0,0,1-1.49,4.59,9.34,9.34,0,0,1-2.94,3.57A8.1,8.1,0,0,1,127.76,85.27Zm1.08-4.1a7.39,7.39,0,0,0,4.56-1.35,8,8,0,0,0,2.68-3.59,13.78,13.78,0,0,0,.86-4.94,14.11,14.11,0,0,0-.89-5.21,7.48,7.48,0,0,0-2.7-3.51,7.64,7.64,0,0,0-4.51-1.27,7.47,7.47,0,0,0-6.26,2.83,12.5,12.5,0,0,0-1.11,12.26,8.87,8.87,0,0,0,3,3.51A7.68,7.68,0,0,0,128.84,81.17Zm8.1-23.44h4.32v27h-3.94q-.16-1.94-.27-3.24c-.07-.86-.11-1.58-.11-2.16Z"/><path d="M149.21,57.73h4.32v27h-4.32Zm13.61-.54a11,11,0,0,1,3.88.65,7.61,7.61,0,0,1,2.92,1.89,8.76,8.76,0,0,1,1.84,3,11.44,11.44,0,0,1,.64,4v18h-4.32v-17a6.68,6.68,0,0,0-1.45-4.7A5.69,5.69,0,0,0,162,61.51a7.78,7.78,0,0,0-4.1,1.14,9.13,9.13,0,0,0-3.11,3.1,10.73,10.73,0,0,0-1.48,4.56l-.06-3.13a13.66,13.66,0,0,1,1.11-4.1,11.12,11.12,0,0,1,2.11-3.16,8.74,8.74,0,0,1,2.91-2A9,9,0,0,1,162.82,57.19Z"/><text class="cls-2" transform="translate(129.96 44.55)">,</text><text class="cls-3" transform="translate(175.38 83.9)">.</text></g></g></svg>