<?xml version="1.0" encoding="UTF-8"?>
<svg width="250px" height="271px" viewBox="0 0 250 271" version="1.1" xmlns="http://www.w3.org/2000/svg" xmlns:xlink="http://www.w3.org/1999/xlink">
    <title>About Heading</title>
    <g id="Web" stroke="none" stroke-width="1" fill="none" fill-rule="evenodd">
        <g id="Artboard" transform="translate(-35.000000, -98.000000)" fill-rule="nonzero" stroke="#FFFFFF">
            <g id="About-Heading" transform="translate(36.000000, 99.000000)">
                <path d="M8.77350993,154 L12.6633278,145.500773 L33.2462334,145.500773 L37.1655629,154 L46,154 L27.2953642,115 L18.5218543,115 L0,154 L8.77350993,154 Z M30,139 L15,139 L22.4722992,123 L30,139 Z M76.7129909,154 C79.734139,153.919629 82.3927492,153.477589 84.6888218,152.673879 C86.9848943,151.87017 88.7774421,150.674652 90.0664653,149.087326 C91.3554884,147.5 92,145.500773 92,143.089645 C92,141.241113 91.6173212,139.744204 90.8519637,138.598918 C90.0866062,137.453632 89.0392749,136.559505 87.7099698,135.916538 C86.3806647,135.27357 84.8398792,134.83153 83.0876133,134.590417 C82.2114804,134.469861 81.3076536,134.37442 80.3761329,134.304096 L80.2789167,134.297503 L80.5325852,134.261963 C81.730974,134.086869 82.8412459,133.85652 83.8634009,133.570916 L84.2960725,133.445131 C86.2900302,132.842349 87.8308157,131.908037 88.918429,130.642195 C90.0060423,129.376352 90.5498489,127.638331 90.5498489,125.42813 C90.5498489,121.972179 89.1903323,119.37017 86.4712991,117.622102 C83.7522659,115.874034 79.7744209,115 74.5377644,115 L74.5377644,115 L52,115 L52,154 L76.7129909,154 Z M74.1256831,132 L60,132 L60,122 L74.5464481,122 C76.7905282,122 78.5938069,122.376016 79.9562842,123.128049 C81.3187614,123.880081 82,125.170732 82,127 C82,128.829268 81.3187614,130.119919 79.9562842,130.871951 C78.5938069,131.623984 76.6502732,132 74.1256831,132 L74.1256831,132 Z M76,147 L60,147 L60,137 L75.2061069,137 C76.7531807,137 78.1984733,137.074786 79.5419847,137.224359 C80.8854962,137.373932 81.9643766,137.769231 82.778626,138.410256 C83.5928753,139.051282 84,140.076923 84,141.487179 C84,143.410256 83.307888,144.809829 81.9236641,145.685897 C80.5394402,146.561966 78.5648855,147 76,147 L76,147 Z M123,155 C128.297474,155 132.800326,154.177563 136.508557,152.532689 C140.216789,150.887816 143.059087,148.542348 145.035452,145.496285 C147.011817,142.450223 148,138.794948 148,134.530461 C148,130.225359 147.011817,126.549777 145.035452,123.503715 C143.059087,120.457652 140.216789,118.112184 136.508557,116.467311 C132.800326,114.822437 128.297474,114 123,114 C117.743276,114 113.250611,114.822437 109.522005,116.467311 C105.793399,118.112184 102.940913,120.457652 100.964548,123.503715 C98.9881826,126.549777 98,130.225359 98,134.530461 C98,138.794948 98.9881826,142.450223 100.964548,145.496285 C102.940913,148.542348 105.793399,150.887816 109.522005,152.532689 C113.250611,154.177563 117.743276,155 123,155 Z M122.59116,148 C119.390424,148 116.53407,147.512415 114.022099,146.537246 C111.510129,145.562077 109.54512,144.079007 108.127072,142.088036 C106.709024,140.097065 106,137.577878 106,134.530474 C106,131.48307 106.709024,128.963883 108.127072,126.972912 C109.54512,124.981941 111.510129,123.488713 114.022099,122.493228 C116.53407,121.497743 119.390424,121 122.59116,121 C125.832413,121 128.678637,121.497743 131.129834,122.493228 C133.581031,123.488713 135.505525,124.981941 136.903315,126.972912 C138.301105,128.963883 139,131.48307 139,134.530474 C139,137.577878 138.301105,140.097065 136.903315,142.088036 C135.505525,144.079007 133.581031,145.562077 131.129834,146.537246 C128.678637,147.512415 125.832413,148 122.59116,148 Z M178.090784,155 C180.471343,155 182.740945,154.818182 184.899587,154.454545 C187.05823,154.090909 189.055479,153.494949 190.891334,152.666667 C192.727189,151.838384 194.331041,150.757576 195.702889,149.424242 C197.074736,148.090909 198.133884,146.454545 198.88033,144.515152 C199.626777,142.575758 200,140.313131 200,137.727273 L200,137.727273 L200,115 L191.950481,115 L191.950481,136.878788 C191.950481,139.949495 191.335167,142.282828 190.104539,143.878788 C188.873911,145.474747 187.219624,146.565657 185.141678,147.151515 C183.063732,147.737374 180.713434,148.030303 178.090784,148.030303 C175.387437,148.030303 172.976616,147.737374 170.858322,147.151515 C168.740028,146.565657 167.075653,145.474747 165.865199,143.878788 C164.654746,142.282828 164.049519,139.949495 164.049519,136.878788 L164.049519,136.878788 L164.049519,115 L156,115 L156,137.727273 C156,140.313131 156.373223,142.575758 157.11967,144.515152 C157.866116,146.454545 158.905089,148.090909 160.236589,149.424242 C161.568088,150.757576 163.151765,151.838384 164.98762,152.666667 C166.823475,153.494949 168.850986,154.090909 171.070151,154.454545 C173.289317,154.818182 175.629528,155 178.090784,155 Z M231.1261,154 L231.125247,121.690881 L248,121.690881 L248,115 L206,115 L206,121.690881 L222.934632,121.690881 L222.935484,154 L231.1261,154 Z" id="ABOUT" fill="#FFFFFF"></path>
                <path d="M8.77350993,97 L12.6633278,88.5007728 L33.2462334,88.5007728 L37.1655629,97 L46,97 L27.2953642,58 L18.5218543,58 L0,97 L8.77350993,97 Z M30,82 L15,82 L22.4722992,66 L30,82 Z M76.7129909,97 C79.734139,96.9196291 82.3927492,96.4775889 84.6888218,95.6738794 C86.9848943,94.87017 88.7774421,93.6746522 90.0664653,92.0873261 C91.3554884,90.5 92,88.5007728 92,86.0896445 C92,84.2411128 91.6173212,82.744204 90.8519637,81.5989181 C90.0866062,80.4536321 89.0392749,79.5595054 87.7099698,78.9165379 C86.3806647,78.2735703 84.8398792,77.8315301 83.0876133,77.5904173 C82.2114804,77.4698609 81.3076536,77.3744204 80.3761329,77.3040958 L80.2789167,77.2975029 L80.5325852,77.2619626 C81.730974,77.0868688 82.8412459,76.8565199 83.8634009,76.570916 L84.2960725,76.4451314 C86.2900302,75.8423493 87.8308157,74.9080371 88.918429,73.6421947 C90.0060423,72.3763524 90.5498489,70.6383308 90.5498489,68.4281298 C90.5498489,64.9721793 89.1903323,62.37017 86.4712991,60.622102 C83.7522659,58.874034 79.7744209,58 74.5377644,58 L74.5377644,58 L52,58 L52,97 L76.7129909,97 Z M74.1256831,75 L60,75 L60,65 L74.5464481,65 C76.7905282,65 78.5938069,65.3760163 79.9562842,66.1280488 C81.3187614,66.8800813 82,68.1707317 82,70 C82,71.8292683 81.3187614,73.1199187 79.9562842,73.8719512 C78.5938069,74.6239837 76.6502732,75 74.1256831,75 L74.1256831,75 Z M76,90 L60,90 L60,80 L75.2061069,80 C76.7531807,80 78.1984733,80.0747863 79.5419847,80.224359 C80.8854962,80.3739316 81.9643766,80.7692308 82.778626,81.4102564 C83.5928753,82.0512821 84,83.0769231 84,84.4871795 C84,86.4102564 83.307888,87.8098291 81.9236641,88.6858974 C80.5394402,89.5619658 78.5648855,90 76,90 L76,90 Z M123,98 C128.297474,98 132.800326,97.1775632 136.508557,95.5326895 C140.216789,93.8878158 143.059087,91.5423477 145.035452,88.4962853 C147.011817,85.4502229 148,81.794948 148,77.5304606 C148,73.2253591 147.011817,69.5497771 145.035452,66.5037147 C143.059087,63.4576523 140.216789,61.1121842 136.508557,59.4673105 C132.800326,57.8224368 128.297474,57 123,57 C117.743276,57 113.250611,57.8224368 109.522005,59.4673105 C105.793399,61.1121842 102.940913,63.4576523 100.964548,66.5037147 C98.9881826,69.5497771 98,73.2253591 98,77.5304606 C98,81.794948 98.9881826,85.4502229 100.964548,88.4962853 C102.940913,91.5423477 105.793399,93.8878158 109.522005,95.5326895 C113.250611,97.1775632 117.743276,98 123,98 Z M122.59116,91 C119.390424,91 116.53407,90.5124153 114.022099,89.537246 C111.510129,88.5620767 109.54512,87.0790068 108.127072,85.0880361 C106.709024,83.0970655 106,80.5778781 106,77.530474 C106,74.48307 106.709024,71.9638826 108.127072,69.972912 C109.54512,67.9819413 111.510129,66.4887133 114.022099,65.493228 C116.53407,64.4977427 119.390424,64 122.59116,64 C125.832413,64 128.678637,64.4977427 131.129834,65.493228 C133.581031,66.4887133 135.505525,67.9819413 136.903315,69.972912 C138.301105,71.9638826 139,74.48307 139,77.530474 C139,80.5778781 138.301105,83.0970655 136.903315,85.0880361 C135.505525,87.0790068 133.581031,88.5620767 131.129834,89.537246 C128.678637,90.5124153 125.832413,91 122.59116,91 Z M178.090784,98 C180.471343,98 182.740945,97.8181818 184.899587,97.4545455 C187.05823,97.0909091 189.055479,96.4949495 190.891334,95.6666667 C192.727189,94.8383838 194.331041,93.7575758 195.702889,92.4242424 C197.074736,91.0909091 198.133884,89.4545455 198.88033,87.5151515 C199.626777,85.5757576 200,83.3131313 200,80.7272727 L200,80.7272727 L200,58 L191.950481,58 L191.950481,79.8787879 C191.950481,82.9494949 191.335167,85.2828283 190.104539,86.8787879 C188.873911,88.4747475 187.219624,89.5656566 185.141678,90.1515152 C183.063732,90.7373737 180.713434,91.030303 178.090784,91.030303 C175.387437,91.030303 172.976616,90.7373737 170.858322,90.1515152 C168.740028,89.5656566 167.075653,88.4747475 165.865199,86.8787879 C164.654746,85.2828283 164.049519,82.9494949 164.049519,79.8787879 L164.049519,79.8787879 L164.049519,58 L156,58 L156,80.7272727 C156,83.3131313 156.373223,85.5757576 157.11967,87.5151515 C157.866116,89.4545455 158.905089,91.0909091 160.236589,92.4242424 C161.568088,93.7575758 163.151765,94.8383838 164.98762,95.6666667 C166.823475,96.4949495 168.850986,97.0909091 171.070151,97.4545455 C173.289317,97.8181818 175.629528,98 178.090784,98 Z M231.1261,97 L231.125247,64.690881 L248,64.690881 L248,58 L206,58 L206,64.690881 L222.934632,64.690881 L222.935484,97 L231.1261,97 Z" id="ABOUT" opacity="0.55"></path>
                <path d="M8.77350993,268 L12.6633278,259.500773 L33.2462334,259.500773 L37.1655629,268 L46,268 L27.2953642,229 L18.5218543,229 L0,268 L8.77350993,268 Z M30,253 L15,253 L22.4722992,237 L30,253 Z M76.7129909,268 C79.734139,267.919629 82.3927492,267.477589 84.6888218,266.673879 C86.9848943,265.87017 88.7774421,264.674652 90.0664653,263.087326 C91.3554884,261.5 92,259.500773 92,257.089645 C92,255.241113 91.6173212,253.744204 90.8519637,252.598918 C90.0866062,251.453632 89.0392749,250.559505 87.7099698,249.916538 C86.3806647,249.27357 84.8398792,248.83153 83.0876133,248.590417 C82.2114804,248.469861 81.3076536,248.37442 80.3761329,248.304096 L80.2789167,248.297503 L80.5325852,248.261963 C81.730974,248.086869 82.8412459,247.85652 83.8634009,247.570916 L84.2960725,247.445131 C86.2900302,246.842349 87.8308157,245.908037 88.918429,244.642195 C90.0060423,243.376352 90.5498489,241.638331 90.5498489,239.42813 C90.5498489,235.972179 89.1903323,233.37017 86.4712991,231.622102 C83.7522659,229.874034 79.7744209,229 74.5377644,229 L74.5377644,229 L52,229 L52,268 L76.7129909,268 Z M74.1256831,246 L60,246 L60,236 L74.5464481,236 C76.7905282,236 78.5938069,236.376016 79.9562842,237.128049 C81.3187614,237.880081 82,239.170732 82,241 C82,242.829268 81.3187614,244.119919 79.9562842,244.871951 C78.5938069,245.623984 76.6502732,246 74.1256831,246 L74.1256831,246 Z M76,261 L60,261 L60,251 L75.2061069,251 C76.7531807,251 78.1984733,251.074786 79.5419847,251.224359 C80.8854962,251.373932 81.9643766,251.769231 82.778626,252.410256 C83.5928753,253.051282 84,254.076923 84,255.487179 C84,257.410256 83.307888,258.809829 81.9236641,259.685897 C80.5394402,260.561966 78.5648855,261 76,261 L76,261 Z M123,269 C128.297474,269 132.800326,268.177563 136.508557,266.532689 C140.216789,264.887816 143.059087,262.542348 145.035452,259.496285 C147.011817,256.450223 148,252.794948 148,248.530461 C148,244.225359 147.011817,240.549777 145.035452,237.503715 C143.059087,234.457652 140.216789,232.112184 136.508557,230.467311 C132.800326,228.822437 128.297474,228 123,228 C117.743276,228 113.250611,228.822437 109.522005,230.467311 C105.793399,232.112184 102.940913,234.457652 100.964548,237.503715 C98.9881826,240.549777 98,244.225359 98,248.530461 C98,252.794948 98.9881826,256.450223 100.964548,259.496285 C102.940913,262.542348 105.793399,264.887816 109.522005,266.532689 C113.250611,268.177563 117.743276,269 123,269 Z M122.59116,262 C119.390424,262 116.53407,261.512415 114.022099,260.537246 C111.510129,259.562077 109.54512,258.079007 108.127072,256.088036 C106.709024,254.097065 106,251.577878 106,248.530474 C106,245.48307 106.709024,242.963883 108.127072,240.972912 C109.54512,238.981941 111.510129,237.488713 114.022099,236.493228 C116.53407,235.497743 119.390424,235 122.59116,235 C125.832413,235 128.678637,235.497743 131.129834,236.493228 C133.581031,237.488713 135.505525,238.981941 136.903315,240.972912 C138.301105,242.963883 139,245.48307 139,248.530474 C139,251.577878 138.301105,254.097065 136.903315,256.088036 C135.505525,258.079007 133.581031,259.562077 131.129834,260.537246 C128.678637,261.512415 125.832413,262 122.59116,262 Z M178.090784,269 C180.471343,269 182.740945,268.818182 184.899587,268.454545 C187.05823,268.090909 189.055479,267.494949 190.891334,266.666667 C192.727189,265.838384 194.331041,264.757576 195.702889,263.424242 C197.074736,262.090909 198.133884,260.454545 198.88033,258.515152 C199.626777,256.575758 200,254.313131 200,251.727273 L200,251.727273 L200,229 L191.950481,229 L191.950481,250.878788 C191.950481,253.949495 191.335167,256.282828 190.104539,257.878788 C188.873911,259.474747 187.219624,260.565657 185.141678,261.151515 C183.063732,261.737374 180.713434,262.030303 178.090784,262.030303 C175.387437,262.030303 172.976616,261.737374 170.858322,261.151515 C168.740028,260.565657 167.075653,259.474747 165.865199,257.878788 C164.654746,256.282828 164.049519,253.949495 164.049519,250.878788 L164.049519,250.878788 L164.049519,229 L156,229 L156,251.727273 C156,254.313131 156.373223,256.575758 157.11967,258.515152 C157.866116,260.454545 158.905089,262.090909 160.236589,263.424242 C161.568088,264.757576 163.151765,265.838384 164.98762,266.666667 C166.823475,267.494949 168.850986,268.090909 171.070151,268.454545 C173.289317,268.818182 175.629528,269 178.090784,269 Z M231.1261,268 L231.125247,235.690881 L248,235.690881 L248,229 L206,229 L206,235.690881 L222.934632,235.690881 L222.935484,268 L231.1261,268 Z" id="ABOUT-Copy-2" opacity="0.55"></path>
                <path d="M8.77350993,40 L12.6633278,31.5007728 L33.2462334,31.5007728 L37.1655629,40 L46,40 L27.2953642,1 L18.5218543,1 L0,40 L8.77350993,40 Z M30,25 L15,25 L22.4722992,9 L30,25 Z M76.7129909,40 C79.734139,39.9196291 82.3927492,39.4775889 84.6888218,38.6738794 C86.9848943,37.87017 88.7774421,36.6746522 90.0664653,35.0873261 C91.3554884,33.5 92,31.5007728 92,29.0896445 C92,27.2411128 91.6173212,25.744204 90.8519637,24.5989181 C90.0866062,23.4536321 89.0392749,22.5595054 87.7099698,21.9165379 C86.3806647,21.2735703 84.8398792,20.8315301 83.0876133,20.5904173 C82.2114804,20.4698609 81.3076536,20.3744204 80.3761329,20.3040958 L80.2789167,20.2975029 L80.5325852,20.2619626 C81.730974,20.0868688 82.8412459,19.8565199 83.8634009,19.570916 L84.2960725,19.4451314 C86.2900302,18.8423493 87.8308157,17.9080371 88.918429,16.6421947 C90.0060423,15.3763524 90.5498489,13.6383308 90.5498489,11.4281298 C90.5498489,7.97217929 89.1903323,5.37017002 86.4712991,3.62210201 C83.7522659,1.874034 79.7744209,1 74.5377644,1 L74.5377644,1 L52,1 L52,40 L76.7129909,40 Z M74.1256831,18 L60,18 L60,8 L74.5464481,8 C76.7905282,8 78.5938069,8.37601626 79.9562842,9.12804878 C81.3187614,9.8800813 82,11.1707317 82,13 C82,14.8292683 81.3187614,16.1199187 79.9562842,16.8719512 C78.5938069,17.6239837 76.6502732,18 74.1256831,18 L74.1256831,18 Z M76,33 L60,33 L60,23 L75.2061069,23 C76.7531807,23 78.1984733,23.0747863 79.5419847,23.224359 C80.8854962,23.3739316 81.9643766,23.7692308 82.778626,24.4102564 C83.5928753,25.0512821 84,26.0769231 84,27.4871795 C84,29.4102564 83.307888,30.8098291 81.9236641,31.6858974 C80.5394402,32.5619658 78.5648855,33 76,33 L76,33 Z M123,41 C128.297474,41 132.800326,40.1775632 136.508557,38.5326895 C140.216789,36.8878158 143.059087,34.5423477 145.035452,31.4962853 C147.011817,28.4502229 148,24.794948 148,20.5304606 C148,16.2253591 147.011817,12.5497771 145.035452,9.50371471 C143.059087,6.4576523 140.216789,4.11218425 136.508557,2.46731055 C132.800326,0.82243685 128.297474,0 123,0 C117.743276,0 113.250611,0.82243685 109.522005,2.46731055 C105.793399,4.11218425 102.940913,6.4576523 100.964548,9.50371471 C98.9881826,12.5497771 98,16.2253591 98,20.5304606 C98,24.794948 98.9881826,28.4502229 100.964548,31.4962853 C102.940913,34.5423477 105.793399,36.8878158 109.522005,38.5326895 C113.250611,40.1775632 117.743276,41 123,41 Z M122.59116,34 C119.390424,34 116.53407,33.5124153 114.022099,32.537246 C111.510129,31.5620767 109.54512,30.0790068 108.127072,28.0880361 C106.709024,26.0970655 106,23.5778781 106,20.530474 C106,17.48307 106.709024,14.9638826 108.127072,12.972912 C109.54512,10.9819413 111.510129,9.48871332 114.022099,8.49322799 C116.53407,7.49774266 119.390424,7 122.59116,7 C125.832413,7 128.678637,7.49774266 131.129834,8.49322799 C133.581031,9.48871332 135.505525,10.9819413 136.903315,12.972912 C138.301105,14.9638826 139,17.48307 139,20.530474 C139,23.5778781 138.301105,26.0970655 136.903315,28.0880361 C135.505525,30.0790068 133.581031,31.5620767 131.129834,32.537246 C128.678637,33.5124153 125.832413,34 122.59116,34 Z M178.090784,41 C180.471343,41 182.740945,40.8181818 184.899587,40.4545455 C187.05823,40.0909091 189.055479,39.4949495 190.891334,38.6666667 C192.727189,37.8383838 194.331041,36.7575758 195.702889,35.4242424 C197.074736,34.0909091 198.133884,32.4545455 198.88033,30.5151515 C199.626777,28.5757576 200,26.3131313 200,23.7272727 L200,23.7272727 L200,1 L191.950481,1 L191.950481,22.8787879 C191.950481,25.9494949 191.335167,28.2828283 190.104539,29.8787879 C188.873911,31.4747475 187.219624,32.5656566 185.141678,33.1515152 C183.063732,33.7373737 180.713434,34.030303 178.090784,34.030303 C175.387437,34.030303 172.976616,33.7373737 170.858322,33.1515152 C168.740028,32.5656566 167.075653,31.4747475 165.865199,29.8787879 C164.654746,28.2828283 164.049519,25.9494949 164.049519,22.8787879 L164.049519,22.8787879 L164.049519,1 L156,1 L156,23.7272727 C156,26.3131313 156.373223,28.5757576 157.11967,30.5151515 C157.866116,32.4545455 158.905089,34.0909091 160.236589,35.4242424 C161.568088,36.7575758 163.151765,37.8383838 164.98762,38.6666667 C166.823475,39.4949495 168.850986,40.0909091 171.070151,40.4545455 C173.289317,40.8181818 175.629528,41 178.090784,41 Z M231.1261,40 L231.125247,7.69088099 L248,7.69088099 L248,1 L206,1 L206,7.69088099 L222.934632,7.69088099 L222.935484,40 L231.1261,40 Z" id="ABOUT-Copy" opacity="0.55"></path>
                <path d="M8.77350993,211 L12.6633278,202.500773 L33.2462334,202.500773 L37.1655629,211 L46,211 L27.2953642,172 L18.5218543,172 L0,211 L8.77350993,211 Z M30,196 L15,196 L22.4722992,180 L30,196 Z M76.7129909,211 C79.734139,210.919629 82.3927492,210.477589 84.6888218,209.673879 C86.9848943,208.87017 88.7774421,207.674652 90.0664653,206.087326 C91.3554884,204.5 92,202.500773 92,200.089645 C92,198.241113 91.6173212,196.744204 90.8519637,195.598918 C90.0866062,194.453632 89.0392749,193.559505 87.7099698,192.916538 C86.3806647,192.27357 84.8398792,191.83153 83.0876133,191.590417 C82.2114804,191.469861 81.3076536,191.37442 80.3761329,191.304096 L80.2789167,191.297503 L80.5325852,191.261963 C81.730974,191.086869 82.8412459,190.85652 83.8634009,190.570916 L84.2960725,190.445131 C86.2900302,189.842349 87.8308157,188.908037 88.918429,187.642195 C90.0060423,186.376352 90.5498489,184.638331 90.5498489,182.42813 C90.5498489,178.972179 89.1903323,176.37017 86.4712991,174.622102 C83.7522659,172.874034 79.7744209,172 74.5377644,172 L74.5377644,172 L52,172 L52,211 L76.7129909,211 Z M74.1256831,189 L60,189 L60,179 L74.5464481,179 C76.7905282,179 78.5938069,179.376016 79.9562842,180.128049 C81.3187614,180.880081 82,182.170732 82,184 C82,185.829268 81.3187614,187.119919 79.9562842,187.871951 C78.5938069,188.623984 76.6502732,189 74.1256831,189 L74.1256831,189 Z M76,204 L60,204 L60,194 L75.2061069,194 C76.7531807,194 78.1984733,194.074786 79.5419847,194.224359 C80.8854962,194.373932 81.9643766,194.769231 82.778626,195.410256 C83.5928753,196.051282 84,197.076923 84,198.487179 C84,200.410256 83.307888,201.809829 81.9236641,202.685897 C80.5394402,203.561966 78.5648855,204 76,204 L76,204 Z M123,212 C128.297474,212 132.800326,211.177563 136.508557,209.532689 C140.216789,207.887816 143.059087,205.542348 145.035452,202.496285 C147.011817,199.450223 148,195.794948 148,191.530461 C148,187.225359 147.011817,183.549777 145.035452,180.503715 C143.059087,177.457652 140.216789,175.112184 136.508557,173.467311 C132.800326,171.822437 128.297474,171 123,171 C117.743276,171 113.250611,171.822437 109.522005,173.467311 C105.793399,175.112184 102.940913,177.457652 100.964548,180.503715 C98.9881826,183.549777 98,187.225359 98,191.530461 C98,195.794948 98.9881826,199.450223 100.964548,202.496285 C102.940913,205.542348 105.793399,207.887816 109.522005,209.532689 C113.250611,211.177563 117.743276,212 123,212 Z M122.59116,205 C119.390424,205 116.53407,204.512415 114.022099,203.537246 C111.510129,202.562077 109.54512,201.079007 108.127072,199.088036 C106.709024,197.097065 106,194.577878 106,191.530474 C106,188.48307 106.709024,185.963883 108.127072,183.972912 C109.54512,181.981941 111.510129,180.488713 114.022099,179.493228 C116.53407,178.497743 119.390424,178 122.59116,178 C125.832413,178 128.678637,178.497743 131.129834,179.493228 C133.581031,180.488713 135.505525,181.981941 136.903315,183.972912 C138.301105,185.963883 139,188.48307 139,191.530474 C139,194.577878 138.301105,197.097065 136.903315,199.088036 C135.505525,201.079007 133.581031,202.562077 131.129834,203.537246 C128.678637,204.512415 125.832413,205 122.59116,205 Z M178.090784,212 C180.471343,212 182.740945,211.818182 184.899587,211.454545 C187.05823,211.090909 189.055479,210.494949 190.891334,209.666667 C192.727189,208.838384 194.331041,207.757576 195.702889,206.424242 C197.074736,205.090909 198.133884,203.454545 198.88033,201.515152 C199.626777,199.575758 200,197.313131 200,194.727273 L200,194.727273 L200,172 L191.950481,172 L191.950481,193.878788 C191.950481,196.949495 191.335167,199.282828 190.104539,200.878788 C188.873911,202.474747 187.219624,203.565657 185.141678,204.151515 C183.063732,204.737374 180.713434,205.030303 178.090784,205.030303 C175.387437,205.030303 172.976616,204.737374 170.858322,204.151515 C168.740028,203.565657 167.075653,202.474747 165.865199,200.878788 C164.654746,199.282828 164.049519,196.949495 164.049519,193.878788 L164.049519,193.878788 L164.049519,172 L156,172 L156,194.727273 C156,197.313131 156.373223,199.575758 157.11967,201.515152 C157.866116,203.454545 158.905089,205.090909 160.236589,206.424242 C161.568088,207.757576 163.151765,208.838384 164.98762,209.666667 C166.823475,210.494949 168.850986,211.090909 171.070151,211.454545 C173.289317,211.818182 175.629528,212 178.090784,212 Z M231.1261,211 L231.125247,178.690881 L248,178.690881 L248,172 L206,172 L206,178.690881 L222.934632,178.690881 L222.935484,211 L231.1261,211 Z" id="ABOUT-Copy-3" opacity="0.55"></path>
            </g>
        </g>
    </g>
</svg>