<?xml version="1.0" encoding="UTF-8"?>
<svg width="224px" height="264px" viewBox="0 0 224 264" version="1.1" xmlns="http://www.w3.org/2000/svg" xmlns:xlink="http://www.w3.org/1999/xlink">
    <title>Work Heading 2</title>
    <g id="Web" stroke="none" stroke-width="1" fill="none" fill-rule="evenodd">
        <g id="Artboard" transform="translate(-48.000000, -98.000000)" fill-rule="nonzero" stroke="#FFFFFF">
            <g id="Work-Heading-2" transform="translate(49.001711, 99.000000)">
                <path d="M25.6046381,39 L37.110855,9.24866907 L48.5681302,39 L58.141146,39 L73.9982889,1 L65.541146,1 L53.2567545,31.4708054 L41.5792413,1 L32.593527,1 L20.9160138,31.4708054 L8.63162223,1 L-0.00171109873,1 L16.0316222,39 L25.6046381,39 Z M98.9982889,39 C104.083863,39 108.406602,38.217682 111.966504,36.6530461 C115.526406,35.0884101 118.255013,32.8573551 120.152323,29.9598811 C122.049634,27.0624071 122.998289,23.5854383 122.998289,19.5289747 C122.998289,15.4338782 122.049634,11.9375929 120.152323,9.04011887 C118.255013,6.14264487 115.526406,3.9115899 111.966504,2.34695394 C108.406602,0.782317979 104.083863,6.39488462e-14 98.9982889,6.39488462e-14 C93.9518341,6.39488462e-14 89.6388757,0.782317979 86.0594136,2.34695394 C82.4799515,3.9115899 79.7415652,6.14264487 77.8442547,9.04011887 C75.9469442,11.9375929 74.9982889,15.4338782 74.9982889,19.5289747 C74.9982889,23.5854383 75.9469442,27.0624071 77.8442547,29.9598811 C79.7415652,32.8573551 82.4799515,35.0884101 86.0594136,36.6530461 C89.6388757,38.217682 93.9518341,39 98.9982889,39 Z M99.0866867,33 C95.9829421,33 93.2131446,32.530474 90.7772944,31.5914221 C88.3414442,30.6523702 86.4359807,29.2242287 85.060904,27.3069977 C83.6858273,25.3897667 82.9982889,22.9638826 82.9982889,20.0293454 C82.9982889,17.0948081 83.6858273,14.668924 85.060904,12.751693 C86.4359807,10.834462 88.3414442,9.39653875 90.7772944,8.43792325 C93.2131446,7.47930775 95.9829421,7 99.0866867,7 C102.229719,7 104.989695,7.47930775 107.366613,8.43792325 C109.743531,9.39653875 111.609707,10.834462 112.96514,12.751693 C114.320573,14.668924 114.998289,17.0948081 114.998289,20.0293454 C114.998289,22.9638826 114.320573,25.3897667 112.96514,27.3069977 C111.609707,29.2242287 109.743531,30.6523702 107.366613,31.5914221 C104.989695,32.530474 102.229719,33 99.0866867,33 Z M138.742103,39 L138.742103,24.9629057 L153.356368,24.9629057 C155.801782,24.9629057 157.67466,25.119526 158.974999,25.4327666 C160.275339,25.7460072 161.177813,26.303967 161.682423,27.1066461 C162.187032,27.9093251 162.439337,29.0350335 162.439337,30.4837713 L162.439337,39 L170.183151,39 L170.183151,29.9551777 C170.183151,27.8408037 169.988727,26.6298767 168.873107,25.1684699 C167.757487,23.707063 166.306605,22.6534775 165.266856,22.0676954 C165.794927,21.6921216 166.306605,21.1785091 167.475727,20.1468315 C168.644849,19.115154 169.445645,18.3456981 170.066702,17.0927357 C170.68776,15.8397733 170.998289,14.3127254 170.998289,12.511592 C170.998289,9.84904688 170.396639,7.66615147 169.19334,5.96290572 C167.99004,4.25965997 166.311244,3.00669758 164.15695,2.20401855 C162.002656,1.40133952 159.469905,1 156.558696,1 L130.998289,1 L130.998289,39 L138.742103,39 Z M157.16931,18 L138.998289,18 L138.998289,7 L157.16931,7 C159.386254,7 161.078653,7.44385965 162.246507,8.33157895 C163.414362,9.21929825 163.998289,10.5122807 163.998289,12.2105263 C163.998289,13.9859649 163.414362,15.3947368 162.246507,16.4368421 C161.078653,17.4789474 159.386254,18 157.16931,18 L157.16931,18 Z M186.843795,39 L186.842542,19.0831187 L209.672446,39 L220.998289,39 L197.245866,18.8775545 L218.284806,1 L207.135929,1 L186.842542,18.9787051 L186.843795,1 L178.998289,1 L178.998289,39 L186.843795,39 Z" id="WORK" opacity="0.554752895"></path>
                <path d="M25.6046381,94 L37.110855,64.2486691 L48.5681302,94 L58.141146,94 L73.9982889,56 L65.541146,56 L53.2567545,86.4708054 L41.5792413,56 L32.593527,56 L20.9160138,86.4708054 L8.63162223,56 L-0.00171109873,56 L16.0316222,94 L25.6046381,94 Z M98.9982889,94 C104.083863,94 108.406602,93.217682 111.966504,91.6530461 C115.526406,90.0884101 118.255013,87.8573551 120.152323,84.9598811 C122.049634,82.0624071 122.998289,78.5854383 122.998289,74.5289747 C122.998289,70.4338782 122.049634,66.9375929 120.152323,64.0401189 C118.255013,61.1426449 115.526406,58.9115899 111.966504,57.3469539 C108.406602,55.782318 104.083863,55 98.9982889,55 C93.9518341,55 89.6388757,55.782318 86.0594136,57.3469539 C82.4799515,58.9115899 79.7415652,61.1426449 77.8442547,64.0401189 C75.9469442,66.9375929 74.9982889,70.4338782 74.9982889,74.5289747 C74.9982889,78.5854383 75.9469442,82.0624071 77.8442547,84.9598811 C79.7415652,87.8573551 82.4799515,90.0884101 86.0594136,91.6530461 C89.6388757,93.217682 93.9518341,94 98.9982889,94 Z M99.0866867,88 C95.9829421,88 93.2131446,87.530474 90.7772944,86.5914221 C88.3414442,85.6523702 86.4359807,84.2242287 85.060904,82.3069977 C83.6858273,80.3897667 82.9982889,77.9638826 82.9982889,75.0293454 C82.9982889,72.0948081 83.6858273,69.668924 85.060904,67.751693 C86.4359807,65.834462 88.3414442,64.3965388 90.7772944,63.4379233 C93.2131446,62.4793078 95.9829421,62 99.0866867,62 C102.229719,62 104.989695,62.4793078 107.366613,63.4379233 C109.743531,64.3965388 111.609707,65.834462 112.96514,67.751693 C114.320573,69.668924 114.998289,72.0948081 114.998289,75.0293454 C114.998289,77.9638826 114.320573,80.3897667 112.96514,82.3069977 C111.609707,84.2242287 109.743531,85.6523702 107.366613,86.5914221 C104.989695,87.530474 102.229719,88 99.0866867,88 Z M138.742103,94 L138.742103,79.9629057 L153.356368,79.9629057 C155.801782,79.9629057 157.67466,80.119526 158.974999,80.4327666 C160.275339,80.7460072 161.177813,81.303967 161.682423,82.1066461 C162.187032,82.9093251 162.439337,84.0350335 162.439337,85.4837713 L162.439337,94 L170.183151,94 L170.183151,84.9551777 C170.183151,82.8408037 169.988727,81.6298767 168.873107,80.1684699 C167.757487,78.707063 166.306605,77.6534775 165.266856,77.0676954 C165.794927,76.6921216 166.306605,76.1785091 167.475727,75.1468315 C168.644849,74.115154 169.445645,73.3456981 170.066702,72.0927357 C170.68776,70.8397733 170.998289,69.3127254 170.998289,67.511592 C170.998289,64.8490469 170.396639,62.6661515 169.19334,60.9629057 C167.99004,59.25966 166.311244,58.0066976 164.15695,57.2040185 C162.002656,56.4013395 159.469905,56 156.558696,56 L130.998289,56 L130.998289,94 L138.742103,94 Z M157.16931,74 L138.998289,74 L138.998289,63 L157.16931,63 C159.386254,63 161.078653,63.4438596 162.246507,64.3315789 C163.414362,65.2192982 163.998289,66.5122807 163.998289,68.2105263 C163.998289,69.9859649 163.414362,71.3947368 162.246507,72.4368421 C161.078653,73.4789474 159.386254,74 157.16931,74 L157.16931,74 Z M186.843795,94 L186.842542,74.0831187 L209.672446,94 L220.998289,94 L197.245866,73.8775545 L218.284806,56 L207.135929,56 L186.842542,73.9787051 L186.843795,56 L178.998289,56 L178.998289,94 L186.843795,94 Z" id="WORK-Copy" opacity="0.554752895"></path>
                <path d="M25.6046381,149 L37.110855,119.248669 L48.5681302,149 L58.141146,149 L73.9982889,111 L65.541146,111 L53.2567545,141.470805 L41.5792413,111 L32.593527,111 L20.9160138,141.470805 L8.63162223,111 L-0.00171109873,111 L16.0316222,149 L25.6046381,149 Z M98.9982889,150 C104.083863,150 108.406602,149.217682 111.966504,147.653046 C115.526406,146.08841 118.255013,143.857355 120.152323,140.959881 C122.049634,138.062407 122.998289,134.585438 122.998289,130.528975 C122.998289,126.433878 122.049634,122.937593 120.152323,120.040119 C118.255013,117.142645 115.526406,114.91159 111.966504,113.346954 C108.406602,111.782318 104.083863,111 98.9982889,111 C93.9518341,111 89.6388757,111.782318 86.0594136,113.346954 C82.4799515,114.91159 79.7415652,117.142645 77.8442547,120.040119 C75.9469442,122.937593 74.9982889,126.433878 74.9982889,130.528975 C74.9982889,134.585438 75.9469442,138.062407 77.8442547,140.959881 C79.7415652,143.857355 82.4799515,146.08841 86.0594136,147.653046 C89.6388757,149.217682 93.9518341,150 98.9982889,150 Z M99.0866867,143 C95.9829421,143 93.2131446,142.530474 90.7772944,141.591422 C88.3414442,140.65237 86.4359807,139.224229 85.060904,137.306998 C83.6858273,135.389767 82.9982889,132.963883 82.9982889,130.029345 C82.9982889,127.094808 83.6858273,124.668924 85.060904,122.751693 C86.4359807,120.834462 88.3414442,119.396539 90.7772944,118.437923 C93.2131446,117.479308 95.9829421,117 99.0866867,117 C102.229719,117 104.989695,117.479308 107.366613,118.437923 C109.743531,119.396539 111.609707,120.834462 112.96514,122.751693 C114.320573,124.668924 114.998289,127.094808 114.998289,130.029345 C114.998289,132.963883 114.320573,135.389767 112.96514,137.306998 C111.609707,139.224229 109.743531,140.65237 107.366613,141.591422 C104.989695,142.530474 102.229719,143 99.0866867,143 Z M138.742103,149 L138.742103,134.962906 L153.356368,134.962906 C155.801782,134.962906 157.67466,135.119526 158.974999,135.432767 C160.275339,135.746007 161.177813,136.303967 161.682423,137.106646 C162.187032,137.909325 162.439337,139.035033 162.439337,140.483771 L162.439337,149 L170.183151,149 L170.183151,139.955178 C170.183151,137.840804 169.988727,136.629877 168.873107,135.16847 C167.757487,133.707063 166.306605,132.653477 165.266856,132.067695 C165.794927,131.692122 166.306605,131.178509 167.475727,130.146832 C168.644849,129.115154 169.445645,128.345698 170.066702,127.092736 C170.68776,125.839773 170.998289,124.312725 170.998289,122.511592 C170.998289,119.849047 170.396639,117.666151 169.19334,115.962906 C167.99004,114.25966 166.311244,113.006698 164.15695,112.204019 C162.002656,111.40134 159.469905,111 156.558696,111 L130.998289,111 L130.998289,149 L138.742103,149 Z M157.16931,129 L138.998289,129 L138.998289,118 L157.16931,118 C159.386254,118 161.078653,118.44386 162.246507,119.331579 C163.414362,120.219298 163.998289,121.512281 163.998289,123.210526 C163.998289,124.985965 163.414362,126.394737 162.246507,127.436842 C161.078653,128.478947 159.386254,129 157.16931,129 L157.16931,129 Z M186.843795,149 L186.842542,129.083119 L209.672446,149 L220.998289,149 L197.245866,128.877555 L218.284806,111 L207.135929,111 L186.842542,128.978705 L186.843795,111 L178.998289,111 L178.998289,149 L186.843795,149 Z" id="WORK-Copy-2" fill="#FFFFFF"></path>
                <path d="M25.6046381,204 L37.110855,174.248669 L48.5681302,204 L58.141146,204 L73.9982889,166 L65.541146,166 L53.2567545,196.470805 L41.5792413,166 L32.593527,166 L20.9160138,196.470805 L8.63162223,166 L-0.00171109873,166 L16.0316222,204 L25.6046381,204 Z M98.9982889,205 C104.083863,205 108.406602,204.217682 111.966504,202.653046 C115.526406,201.08841 118.255013,198.857355 120.152323,195.959881 C122.049634,193.062407 122.998289,189.585438 122.998289,185.528975 C122.998289,181.433878 122.049634,177.937593 120.152323,175.040119 C118.255013,172.142645 115.526406,169.91159 111.966504,168.346954 C108.406602,166.782318 104.083863,166 98.9982889,166 C93.9518341,166 89.6388757,166.782318 86.0594136,168.346954 C82.4799515,169.91159 79.7415652,172.142645 77.8442547,175.040119 C75.9469442,177.937593 74.9982889,181.433878 74.9982889,185.528975 C74.9982889,189.585438 75.9469442,193.062407 77.8442547,195.959881 C79.7415652,198.857355 82.4799515,201.08841 86.0594136,202.653046 C89.6388757,204.217682 93.9518341,205 98.9982889,205 Z M99.0866867,198 C95.9829421,198 93.2131446,197.530474 90.7772944,196.591422 C88.3414442,195.65237 86.4359807,194.224229 85.060904,192.306998 C83.6858273,190.389767 82.9982889,187.963883 82.9982889,185.029345 C82.9982889,182.094808 83.6858273,179.668924 85.060904,177.751693 C86.4359807,175.834462 88.3414442,174.396539 90.7772944,173.437923 C93.2131446,172.479308 95.9829421,172 99.0866867,172 C102.229719,172 104.989695,172.479308 107.366613,173.437923 C109.743531,174.396539 111.609707,175.834462 112.96514,177.751693 C114.320573,179.668924 114.998289,182.094808 114.998289,185.029345 C114.998289,187.963883 114.320573,190.389767 112.96514,192.306998 C111.609707,194.224229 109.743531,195.65237 107.366613,196.591422 C104.989695,197.530474 102.229719,198 99.0866867,198 Z M138.742103,204 L138.742103,189.962906 L153.356368,189.962906 C155.801782,189.962906 157.67466,190.119526 158.974999,190.432767 C160.275339,190.746007 161.177813,191.303967 161.682423,192.106646 C162.187032,192.909325 162.439337,194.035033 162.439337,195.483771 L162.439337,204 L170.183151,204 L170.183151,194.955178 C170.183151,192.840804 169.988727,191.629877 168.873107,190.16847 C167.757487,188.707063 166.306605,187.653477 165.266856,187.067695 C165.794927,186.692122 166.306605,186.178509 167.475727,185.146832 C168.644849,184.115154 169.445645,183.345698 170.066702,182.092736 C170.68776,180.839773 170.998289,179.312725 170.998289,177.511592 C170.998289,174.849047 170.396639,172.666151 169.19334,170.962906 C167.99004,169.25966 166.311244,168.006698 164.15695,167.204019 C162.002656,166.40134 159.469905,166 156.558696,166 L130.998289,166 L130.998289,204 L138.742103,204 Z M157.16931,184 L138.998289,184 L138.998289,173 L157.16931,173 C159.386254,173 161.078653,173.44386 162.246507,174.331579 C163.414362,175.219298 163.998289,176.512281 163.998289,178.210526 C163.998289,179.985965 163.414362,181.394737 162.246507,182.436842 C161.078653,183.478947 159.386254,184 157.16931,184 L157.16931,184 Z M186.843795,204 L186.842542,184.083119 L209.672446,204 L220.998289,204 L197.245866,183.877555 L218.284806,166 L207.135929,166 L186.842542,183.978705 L186.843795,166 L178.998289,166 L178.998289,204 L186.843795,204 Z" id="WORK-Copy-3" opacity="0.554752895"></path>
                <path d="M25.6046381,261 L37.110855,231.248669 L48.5681302,261 L58.141146,261 L73.9982889,223 L65.541146,223 L53.2567545,253.470805 L41.5792413,223 L32.593527,223 L20.9160138,253.470805 L8.63162223,223 L-0.00171109873,223 L16.0316222,261 L25.6046381,261 Z M98.9982889,262 C104.083863,262 108.406602,261.217682 111.966504,259.653046 C115.526406,258.08841 118.255013,255.857355 120.152323,252.959881 C122.049634,250.062407 122.998289,246.585438 122.998289,242.528975 C122.998289,238.433878 122.049634,234.937593 120.152323,232.040119 C118.255013,229.142645 115.526406,226.91159 111.966504,225.346954 C108.406602,223.782318 104.083863,223 98.9982889,223 C93.9518341,223 89.6388757,223.782318 86.0594136,225.346954 C82.4799515,226.91159 79.7415652,229.142645 77.8442547,232.040119 C75.9469442,234.937593 74.9982889,238.433878 74.9982889,242.528975 C74.9982889,246.585438 75.9469442,250.062407 77.8442547,252.959881 C79.7415652,255.857355 82.4799515,258.08841 86.0594136,259.653046 C89.6388757,261.217682 93.9518341,262 98.9982889,262 Z M99.0866867,255 C95.9829421,255 93.2131446,254.530474 90.7772944,253.591422 C88.3414442,252.65237 86.4359807,251.224229 85.060904,249.306998 C83.6858273,247.389767 82.9982889,244.963883 82.9982889,242.029345 C82.9982889,239.094808 83.6858273,236.668924 85.060904,234.751693 C86.4359807,232.834462 88.3414442,231.396539 90.7772944,230.437923 C93.2131446,229.479308 95.9829421,229 99.0866867,229 C102.229719,229 104.989695,229.479308 107.366613,230.437923 C109.743531,231.396539 111.609707,232.834462 112.96514,234.751693 C114.320573,236.668924 114.998289,239.094808 114.998289,242.029345 C114.998289,244.963883 114.320573,247.389767 112.96514,249.306998 C111.609707,251.224229 109.743531,252.65237 107.366613,253.591422 C104.989695,254.530474 102.229719,255 99.0866867,255 Z M138.742103,261 L138.742103,246.962906 L153.356368,246.962906 C155.801782,246.962906 157.67466,247.119526 158.974999,247.432767 C160.275339,247.746007 161.177813,248.303967 161.682423,249.106646 C162.187032,249.909325 162.439337,251.035033 162.439337,252.483771 L162.439337,261 L170.183151,261 L170.183151,251.955178 C170.183151,249.840804 169.988727,248.629877 168.873107,247.16847 C167.757487,245.707063 166.306605,244.653477 165.266856,244.067695 C165.794927,243.692122 166.306605,243.178509 167.475727,242.146832 C168.644849,241.115154 169.445645,240.345698 170.066702,239.092736 C170.68776,237.839773 170.998289,236.312725 170.998289,234.511592 C170.998289,231.849047 170.396639,229.666151 169.19334,227.962906 C167.99004,226.25966 166.311244,225.006698 164.15695,224.204019 C162.002656,223.40134 159.469905,223 156.558696,223 L130.998289,223 L130.998289,261 L138.742103,261 Z M157.16931,241 L138.998289,241 L138.998289,230 L157.16931,230 C159.386254,230 161.078653,230.44386 162.246507,231.331579 C163.414362,232.219298 163.998289,233.512281 163.998289,235.210526 C163.998289,236.985965 163.414362,238.394737 162.246507,239.436842 C161.078653,240.478947 159.386254,241 157.16931,241 L157.16931,241 Z M186.843795,261 L186.842542,241.083119 L209.672446,261 L220.998289,261 L197.245866,240.877555 L218.284806,223 L207.135929,223 L186.842542,240.978705 L186.843795,223 L178.998289,223 L178.998289,261 L186.843795,261 Z" id="WORK-Copy-4" opacity="0.554752895"></path>
            </g>
        </g>
    </g>
</svg>